# xmcd
#
# Track frame offsets:
#	150
#	14326
#	34799
#	55627
#	75493
#	91493
#	108808
#	132428
#	150431
#	167613
#	187747
#	206157
#	223047
#	243040
#	264148
#	283124
#	304107
#	317725
#	332003
#
# Disc length: 4675 seconds
#
# Revision: 0
# Processed by: cddbd v1.5.1PL2 Copyright (c) Steve Scherf et al.
# Submitted via: dBpowerAMP V4.0
#
DISCID=f2124113
DTITLE=song - Country
DYEAR=1900
DGENRE=Country
TTITLE0=song
TTITLE1=song
TTITLE2=song
TTITLE3=song
TTITLE4=song
TTITLE5=song
TTITLE6=song
TTITLE7=song
TTITLE8=song
TTITLE9=song
TTITLE10=song
TTITLE11=song
TTITLE12=song
TTITLE13=song
TTITLE14=song
TTITLE15=song
TTITLE16=song
TTITLE17=song
TTITLE18=song
EXTD=Keith Urban
EXTT0=
EXTT1=
EXTT2=
EXTT3=
EXTT4=
EXTT5=
EXTT6=
EXTT7=
EXTT8=
EXTT9=
EXTT10=
EXTT11=
EXTT12=
EXTT13=
EXTT14=
EXTT15=
EXTT16=
EXTT17=
EXTT18=
PLAYORDER=
